<?xml version="1.0" encoding="utf-8"?>
<!-- Generator: Adobe Illustrator 27.4.1, SVG Export Plug-In . SVG Version: 6.00 Build 0)  -->
<svg version="1.1" id="Layer_1" xmlns="http://www.w3.org/2000/svg" xmlns:xlink="http://www.w3.org/1999/xlink" x="0px" y="0px"
	 viewBox="0 0 1366 768" style="enable-background:new 0 0 1366 768;" xml:space="preserve">
<style type="text/css">
	.st0{fill:#33426E;}
	.st1{fill:#7ABE8B;}
	.st2{fill:#DFB5B5;}
	.st3{fill:#D2DEDB;}
	.st4{fill:none;stroke:#4D4D4D;stroke-miterlimit:10;}
</style>
<rect x="179.03" y="341.49" class="st0" width="126.9" height="183.47"/>
<rect x="1060.5" y="341.49" class="st1" width="126.9" height="183.47"/>
<rect x="353.47" y="341.49" class="st2" width="118.23" height="183.47"/>
<rect x="896.7" y="341.49" class="st3" width="116.59" height="183.47"/>
<polyline class="st4" points="865.87,228.37 684.16,163.62 502.91,228.37 "/>
<polyline class="st4" points="889.47,228.37 684.16,155.44 473.44,228.37 "/>
<line class="st4" x1="458.55" y1="241.81" x2="909.76" y2="241.81"/>
<line class="st4" x1="467.06" y1="273.62" x2="900.35" y2="273.62"/>
<line class="st4" x1="467.06" y1="284.52" x2="897.66" y2="284.52"/>
<line class="st4" x1="920.48" y1="217.61" x2="1017.75" y2="217.61"/>
<line class="st4" x1="1190.41" y1="217.61" x2="1054.19" y2="217.61"/>
<line class="st4" x1="917.17" y1="226.12" x2="1017.75" y2="226.12"/>
<line class="st4" x1="1190.41" y1="226.12" x2="1054.19" y2="226.12"/>
<line class="st4" x1="903.64" y1="249.87" x2="1225.66" y2="249.87"/>
<line class="st4" x1="897.66" y1="258.39" x2="1225.66" y2="258.39"/>
<line class="st4" x1="897.66" y1="266" x2="1225.66" y2="266"/>
<line class="st4" x1="900.35" y1="273.62" x2="1225.66" y2="273.62"/>
<line class="st4" x1="892.21" y1="300.61" x2="1225.66" y2="300.61"/>
<line class="st4" x1="903.06" y1="308.3" x2="1225.66" y2="308.3"/>
<line class="st4" x1="896.7" y1="322.16" x2="1225.66" y2="322.16"/>
<line class="st4" x1="1050.93" y1="534.41" x2="1196.98" y2="534.41"/>
<line class="st4" x1="776.58" y1="550.98" x2="853.5" y2="550.98"/>
<line class="st4" x1="499.18" y1="424.92" x2="602.81" y2="424.92"/>
<line class="st4" x1="633.27" y1="424.92" x2="734.71" y2="424.92"/>
<line class="st4" x1="763.39" y1="424.92" x2="866.83" y2="424.92"/>
<line class="st4" x1="458.55" y1="241.81" x2="467.06" y2="257.04"/>
<line class="st4" x1="896.7" y1="315.59" x2="896.7" y2="534.41"/>
<line class="st4" x1="866.83" y1="315.99" x2="866.83" y2="534.41"/>
<line class="st4" x1="763.39" y1="315.99" x2="763.39" y2="534.59"/>
<line class="st4" x1="734.71" y1="315.99" x2="734.71" y2="534.59"/>
<g>
	<line class="st4" x1="633.27" y1="314.89" x2="633.27" y2="534.59"/>
	<line class="st4" x1="602.81" y1="315.98" x2="602.81" y2="534.59"/>
</g>
<line class="st4" x1="499.18" y1="315.99" x2="499.18" y2="534.41"/>
<line class="st4" x1="471.69" y1="315.99" x2="471.69" y2="534.41"/>
<line class="st4" x1="456.88" y1="234.64" x2="911" y2="234.64"/>
<line class="st4" x1="458.55" y1="241.81" x2="455.41" y2="228.37"/>
<polyline class="st4" points="916.03,228.37 451.83,228.37 451.38,228.37 445.83,215.83 684.16,131.58 920.83,216.76 916.03,228.37 
	684.16,145.17 451.38,228.37 "/>
<polyline class="st4" points="467.06,257.04 467.06,273.62 467.06,295.58 897.66,295.58 897.66,257.04 909.76,241.81 909.76,240.02 
	912.45,228.37 "/>
<polyline class="st4" points="1017.75,249.42 1017.75,211.96 1054.19,211.96 1054.19,249.42 "/>
<line class="st4" x1="1225.66" y1="342.28" x2="1225.66" y2="550.53"/>
<line class="st4" x1="936.27" y1="549.19" x2="1225.66" y2="549.19"/>
<line class="st4" x1="1023.72" y1="342.72" x2="1023.72" y2="549.19"/>
<line class="st4" x1="1050.93" y1="342.72" x2="1050.93" y2="549.19"/>
<line class="st4" x1="1196.98" y1="342.62" x2="1196.98" y2="549.19"/>
<path class="st4" d="M1050.93,327.34c4.25,0,7.69,3.44,7.69,7.69c0,4.25-3.44,7.69-7.69,7.69s-7.69-3.44-7.69-7.69h-11.85
	c0,4.25-3.42,7.69-7.66,7.69c-4.25,0-7.69-3.44-7.69-7.69c0-4.25,3.44-7.69,7.69-7.69H1050.93z"/>
<path class="st4" d="M1225.31,327.34c4.25,0,7.69,3.44,7.69,7.69c0,4.25-3.44,7.69-7.69,7.69s-7.69-3.44-7.69-7.69h-11.85
	c0,4.25-3.42,7.69-7.66,7.69s-7.69-3.44-7.69-7.69c0-4.25,3.44-7.69,7.69-7.69H1225.31z"/>
<path class="st4" d="M895.37,300.61c4.25,0,7.69,3.44,7.69,7.69c0,4.25-3.44,7.69-7.69,7.69s-7.69-3.44-7.69-7.69h-11.85
	c0,4.25-3.42,7.69-7.66,7.69s-7.69-3.44-7.69-7.69c0-4.25,3.44-7.69,7.69-7.69H895.37z"/>
<path class="st4" d="M762.65,300.61c4.25,0,7.69,3.44,7.69,7.69c0,4.25-3.44,7.69-7.69,7.69s-7.69-3.44-7.69-7.69h-11.85
	c0,4.25-3.42,7.69-7.66,7.69s-7.69-3.44-7.69-7.69c0-4.25,3.44-7.69,7.69-7.69H762.65z"/>
<path class="st4" d="M632.07,300.61c4.25,0,7.69,3.44,7.69,7.69c0,4.25-3.44,7.69-7.69,7.69c-4.25,0-7.69-3.44-7.69-7.69h-11.85
	c0,4.25-3.42,7.69-7.66,7.69c-4.25,0-7.69-3.44-7.69-7.69c0-4.25,3.44-7.69,7.69-7.69H632.07z"/>
<path class="st4" d="M499.25,300.61c4.25,0,7.69,3.44,7.69,7.69c0,4.25-3.44,7.69-7.69,7.69s-7.69-3.44-7.69-7.69h-11.85
	c0,4.25-3.42,7.69-7.66,7.69s-7.69-3.44-7.69-7.69c0-4.25,3.44-7.69,7.69-7.69H499.25z"/>
<polyline class="st4" points="1190.41,249.87 1190.41,211.96 1225.66,211.96 1225.66,327.34 "/>
<rect x="589.72" y="534.59" class="st4" width="54.37" height="26.16"/>
<rect x="722.21" y="534.59" class="st4" width="54.37" height="26.16"/>
<polyline class="st4" points="853.5,560.75 853.5,534.59 1023.55,534.58 "/>
<line class="st4" x1="512.83" y1="550.98" x2="589.66" y2="550.98"/>
<line class="st4" x1="644.03" y1="550.98" x2="722.21" y2="550.98"/>
<rect x="517.4" y="358.61" class="st4" width="67.19" height="56.76"/>
<line class="st4" x1="550.99" y1="415.36" x2="550.99" y2="358.61"/>
<line class="st4" x1="517.4" y1="386.98" x2="584.58" y2="386.98"/>
<line class="st4" x1="517.4" y1="358.61" x2="584.58" y2="386.98"/>
<line class="st4" x1="584.58" y1="358.61" x2="517.4" y2="386.98"/>
<line class="st4" x1="584.58" y1="415.36" x2="517.4" y2="386.98"/>
<line class="st4" x1="517.4" y1="415.36" x2="584.58" y2="386.98"/>
<rect x="650.56" y="358.61" class="st4" width="67.19" height="56.76"/>
<line class="st4" x1="684.16" y1="415.36" x2="684.16" y2="358.61"/>
<line class="st4" x1="650.56" y1="386.98" x2="717.75" y2="386.98"/>
<line class="st4" x1="650.56" y1="358.61" x2="717.75" y2="386.98"/>
<line class="st4" x1="717.75" y1="358.61" x2="650.56" y2="386.98"/>
<line class="st4" x1="717.75" y1="415.36" x2="650.56" y2="386.98"/>
<line class="st4" x1="650.56" y1="415.36" x2="717.75" y2="386.98"/>
<rect x="781.52" y="358.61" class="st4" width="67.19" height="56.76"/>
<line class="st4" x1="815.11" y1="415.36" x2="815.11" y2="358.61"/>
<line class="st4" x1="781.52" y1="386.98" x2="848.7" y2="386.98"/>
<line class="st4" x1="781.52" y1="358.61" x2="848.7" y2="386.98"/>
<line class="st4" x1="848.7" y1="358.61" x2="781.52" y2="386.98"/>
<line class="st4" x1="848.7" y1="415.36" x2="781.52" y2="386.98"/>
<line class="st4" x1="781.52" y1="415.36" x2="848.7" y2="386.98"/>
<path class="st4" d="M996.06,235.64c0,5.07-1.32,9.19-2.95,9.19s-2.95-4.11-2.95-9.19S996.06,230.57,996.06,235.64z"/>
<path class="st4" d="M1007.43,235.64c0,5.07-1.32,9.19-2.95,9.19s-2.95-4.11-2.95-9.19S1007.43,230.57,1007.43,235.64z"/>
<path class="st4" d="M961.93,235.64c0,5.07-1.32,9.19-2.95,9.19s-2.95-4.11-2.95-9.19S961.93,230.57,961.93,235.64z"/>
<path class="st4" d="M973.31,235.64c0,5.07-1.32,9.19-2.95,9.19s-2.95-4.11-2.95-9.19S973.31,230.57,973.31,235.64z"/>
<path class="st4" d="M984.68,235.64c0,5.07-1.32,9.19-2.95,9.19s-2.95-4.11-2.95-9.19S984.68,230.57,984.68,235.64z"/>
<path class="st4" d="M927.81,235.64c0,5.07-1.32,9.19-2.95,9.19s-2.95-4.11-2.95-9.19S927.81,230.57,927.81,235.64z"/>
<path class="st4" d="M939.18,235.64c0,5.07-1.32,9.19-2.95,9.19s-2.95-4.11-2.95-9.19S939.18,230.57,939.18,235.64z"/>
<path class="st4" d="M950.56,235.64c0,5.07-1.32,9.19-2.95,9.19s-2.95-4.11-2.95-9.19S950.56,230.57,950.56,235.64z"/>
<path class="st4" d="M1136.81,235.64c0,5.07-1.32,9.19-2.95,9.19s-2.95-4.11-2.95-9.19S1136.81,230.57,1136.81,235.64z"/>
<path class="st4" d="M1148.18,235.64c0,5.07-1.32,9.19-2.95,9.19s-2.95-4.11-2.95-9.19S1148.18,230.57,1148.18,235.64z"/>
<path class="st4" d="M1159.56,235.64c0,5.07-1.32,9.19-2.95,9.19c-1.63,0-2.95-4.11-2.95-9.19S1159.56,230.57,1159.56,235.64z"/>
<path class="st4" d="M1169.83,235.64c0,5.07-1.32,9.19-2.95,9.19s-2.95-4.11-2.95-9.19S1169.83,230.57,1169.83,235.64z"/>
<path class="st4" d="M1181.21,235.64c0,5.07-1.32,9.19-2.95,9.19s-2.95-4.11-2.95-9.19S1181.21,230.57,1181.21,235.64z"/>
<path class="st4" d="M1102.68,235.64c0,5.07-1.32,9.19-2.95,9.19s-2.95-4.11-2.95-9.19S1102.68,230.57,1102.68,235.64z"/>
<path class="st4" d="M1114.06,235.64c0,5.07-1.32,9.19-2.95,9.19s-2.95-4.11-2.95-9.19S1114.06,230.57,1114.06,235.64z"/>
<path class="st4" d="M1125.43,235.64c0,5.07-1.32,9.19-2.95,9.19s-2.95-4.11-2.95-9.19S1125.43,230.57,1125.43,235.64z"/>
<path class="st4" d="M1068.56,235.64c0,5.07-1.32,9.19-2.95,9.19s-2.95-4.11-2.95-9.19S1068.56,230.57,1068.56,235.64z"/>
<path class="st4" d="M1079.94,235.64c0,5.07-1.32,9.19-2.95,9.19s-2.95-4.11-2.95-9.19S1079.94,230.57,1079.94,235.64z"/>
<path class="st4" d="M1091.31,235.64c0,5.07-1.32,9.19-2.95,9.19s-2.95-4.11-2.95-9.19S1091.31,230.57,1091.31,235.64z"/>
<line class="st4" x1="446.62" y1="217.61" x2="349.25" y2="217.61"/>
<line class="st4" x1="176.59" y1="217.61" x2="312.81" y2="217.61"/>
<line class="st4" x1="450.39" y1="226.12" x2="349.25" y2="226.12"/>
<line class="st4" x1="176.59" y1="226.12" x2="312.81" y2="226.12"/>
<line class="st4" x1="463.36" y1="249.87" x2="141.3" y2="249.87"/>
<line class="st4" x1="467.06" y1="258.39" x2="141.3" y2="258.39"/>
<line class="st4" x1="467.06" y1="266" x2="141.3" y2="266"/>
<line class="st4" x1="466.65" y1="273.62" x2="141.3" y2="273.62"/>
<line class="st4" x1="474.89" y1="300.61" x2="141.39" y2="300.61"/>
<line class="st4" x1="463.94" y1="308.3" x2="141.3" y2="308.3"/>
<polyline class="st4" points="343.28,534.59 512.83,534.59 512.83,560.75 "/>
<line class="st4" x1="316.07" y1="534.41" x2="170.02" y2="534.41"/>
<polyline class="st4" points="349.25,249.65 349.25,211.96 312.81,211.96 312.81,249.65 "/>
<line class="st4" x1="141.34" y1="342.72" x2="141.34" y2="550.53"/>
<line class="st4" x1="429.46" y1="549.19" x2="141.34" y2="549.19"/>
<line class="st4" x1="343.28" y1="342.72" x2="343.28" y2="549.19"/>
<line class="st4" x1="316.07" y1="342.72" x2="316.07" y2="549.19"/>
<line class="st4" x1="170.02" y1="342.72" x2="170.02" y2="549.19"/>
<path class="st4" d="M316.07,327.34c-4.25,0-7.69,3.44-7.69,7.69c0,4.25,3.44,7.69,7.69,7.69s7.69-3.44,7.69-7.69h11.85
	c0,4.25,3.42,7.69,7.66,7.69s7.69-3.44,7.69-7.69c0-4.25-3.44-7.69-7.69-7.69H316.07z"/>
<path class="st4" d="M141.69,327.34c-4.25,0-7.69,3.44-7.69,7.69c0,4.25,3.44,7.69,7.69,7.69c4.25,0,7.69-3.44,7.69-7.69h11.85
	c0,4.25,3.42,7.69,7.66,7.69c4.25,0,7.69-3.44,7.69-7.69c0-4.25-3.44-7.69-7.69-7.69H141.69z"/>
<line class="st4" x1="141.34" y1="322.16" x2="471.69" y2="322.16"/>
<polyline class="st4" points="176.59,249.87 176.59,211.96 141.34,211.96 141.34,327.34 "/>
<path class="st4" d="M370.94,235.64c0,5.07,1.32,9.19,2.95,9.19s2.95-4.11,2.95-9.19S370.94,230.57,370.94,235.64z"/>
<path class="st4" d="M359.57,235.64c0,5.07,1.32,9.19,2.95,9.19s2.95-4.11,2.95-9.19S359.57,230.57,359.57,235.64z"/>
<path class="st4" d="M405.07,235.64c0,5.07,1.32,9.19,2.95,9.19s2.95-4.11,2.95-9.19S405.07,230.57,405.07,235.64z"/>
<path class="st4" d="M393.69,235.64c0,5.07,1.32,9.19,2.95,9.19s2.95-4.11,2.95-9.19S393.69,230.57,393.69,235.64z"/>
<path class="st4" d="M382.32,235.64c0,5.07,1.32,9.19,2.95,9.19s2.95-4.11,2.95-9.19S382.32,230.57,382.32,235.64z"/>
<path class="st4" d="M439.19,235.64c0,5.07,1.32,9.19,2.95,9.19s2.95-4.11,2.95-9.19S439.19,230.57,439.19,235.64z"/>
<path class="st4" d="M427.82,235.64c0,5.07,1.32,9.19,2.95,9.19s2.95-4.11,2.95-9.19S427.82,230.57,427.82,235.64z"/>
<path class="st4" d="M416.44,235.64c0,5.07,1.32,9.19,2.95,9.19s2.95-4.11,2.95-9.19S416.44,230.57,416.44,235.64z"/>
<path class="st4" d="M230.19,235.64c0,5.07,1.32,9.19,2.95,9.19s2.95-4.11,2.95-9.19S230.19,230.57,230.19,235.64z"/>
<path class="st4" d="M218.82,235.64c0,5.07,1.32,9.19,2.95,9.19s2.95-4.11,2.95-9.19S218.82,230.57,218.82,235.64z"/>
<path class="st4" d="M207.44,235.64c0,5.07,1.32,9.19,2.95,9.19s2.95-4.11,2.95-9.19S207.44,230.57,207.44,235.64z"/>
<path class="st4" d="M197.17,235.64c0,5.07,1.32,9.19,2.95,9.19s2.95-4.11,2.95-9.19S197.17,230.57,197.17,235.64z"/>
<path class="st4" d="M185.79,235.64c0,5.07,1.32,9.19,2.95,9.19c1.63,0,2.95-4.11,2.95-9.19S185.79,230.57,185.79,235.64z"/>
<path class="st4" d="M264.32,235.64c0,5.07,1.32,9.19,2.95,9.19s2.95-4.11,2.95-9.19S264.32,230.57,264.32,235.64z"/>
<path class="st4" d="M252.94,235.64c0,5.07,1.32,9.19,2.95,9.19s2.95-4.11,2.95-9.19S252.94,230.57,252.94,235.64z"/>
<path class="st4" d="M241.57,235.64c0,5.07,1.32,9.19,2.95,9.19s2.95-4.11,2.95-9.19S241.57,230.57,241.57,235.64z"/>
<path class="st4" d="M298.44,235.64c0,5.07,1.32,9.19,2.95,9.19s2.95-4.11,2.95-9.19S298.44,230.57,298.44,235.64z"/>
<path class="st4" d="M287.06,235.64c0,5.07,1.32,9.19,2.95,9.19s2.95-4.11,2.95-9.19S287.06,230.57,287.06,235.64z"/>
<path class="st4" d="M275.69,235.64c0,5.07,1.32,9.19,2.95,9.19s2.95-4.11,2.95-9.19S275.69,230.57,275.69,235.64z"/>
<rect x="512.83" y="439.86" class="st4" width="76.83" height="99.13"/>
<rect x="655.99" y="441.65" class="st4" width="56.79" height="109.33"/>
<rect x="776.69" y="439.86" class="st4" width="76.83" height="99.13"/>
<path class="st4" d="M408.02,628.09c0,0,17.7-7.03,34.36-35.73c16.32-28.11,16.17-53.38,16.17-53.38l33.95,10.2v11.56h20.33"/>
<path class="st4" d="M405.08,596.91c0.12-0.13,0.23-0.26,0.35-0.39c4.45-4.98,9.24-11.36,13.95-19.46
	c9.45-16.28,12.29-29.87,12.29-38.07h26.89"/>
<rect x="333.14" y="612.78" class="st4" width="51.87" height="78.52"/>
<polyline class="st4" points="385.01,612.78 408.02,612.78 407.5,681.69 385.01,691.3 "/>
<rect x="328.64" y="694.45" class="st4" width="57.92" height="16.66"/>
<polyline class="st4" points="386.56,711.11 410.44,698.65 410.27,684.24 386.56,694.45 "/>
<line class="st4" x1="328.64" y1="694.45" x2="333.14" y2="691.3"/>
<line class="st4" x1="386.56" y1="694.45" x2="385.01" y2="691.3"/>
<line class="st4" x1="410.27" y1="684.24" x2="407.5" y2="681.69"/>
<rect x="333.14" y="597" class="st4" width="51.87" height="9.52"/>
<rect x="385.01" y="597" class="st4" width="23.01" height="9.52"/>
<line class="st4" x1="412.97" y1="606.52" x2="328.64" y2="606.52"/>
<line class="st4" x1="333.14" y1="612.78" x2="328.64" y2="606.52"/>
<line class="st4" x1="408.02" y1="612.78" x2="412.97" y2="606.52"/>
<line class="st4" x1="385.01" y1="612.78" x2="385.01" y2="605.59"/>
<g>
	<path class="st4" d="M958.63,628.09c0,0-17.7-7.03-34.36-35.73c-16.32-28.11-16.17-53.38-16.17-53.38l-33.95,10.2v11.56h-20.33"/>
	<path class="st4" d="M961.57,596.91c-4.55-5.03-9.47-11.53-14.3-19.85c-9.45-16.28-12.29-29.87-12.29-38.07H908.1"/>
	
		<rect x="981.64" y="612.78" transform="matrix(-1 -4.488466e-11 4.488466e-11 -1 2015.149 1304.0831)" class="st4" width="51.87" height="78.52"/>
	<polyline class="st4" points="981.64,612.78 958.63,612.78 959.15,681.69 981.64,691.3 	"/>
	
		<rect x="980.09" y="694.45" transform="matrix(-1 -4.493928e-11 4.493928e-11 -1 2018.1034 1405.5531)" class="st4" width="57.92" height="16.66"/>
	<polyline class="st4" points="980.09,711.11 956.21,698.65 956.38,684.24 980.09,694.45 	"/>
	<line class="st4" x1="1038.01" y1="694.45" x2="1033.51" y2="691.3"/>
	<line class="st4" x1="980.09" y1="694.45" x2="981.64" y2="691.3"/>
	<line class="st4" x1="956.38" y1="684.24" x2="959.15" y2="681.69"/>
	
		<rect x="981.64" y="597" transform="matrix(-1 -6.785296e-11 6.785296e-11 -1 2015.1486 1203.5171)" class="st4" width="51.87" height="9.52"/>
	
		<rect x="958.63" y="597" transform="matrix(-1 -6.776103e-11 6.776103e-11 -1 1940.2699 1203.5171)" class="st4" width="23.01" height="9.52"/>
	<line class="st4" x1="953.68" y1="606.52" x2="1038.01" y2="606.52"/>
	<line class="st4" x1="1033.51" y1="612.78" x2="1038.01" y2="606.52"/>
	<line class="st4" x1="958.63" y1="612.78" x2="953.68" y2="606.52"/>
	<line class="st4" x1="981.64" y1="612.78" x2="981.64" y2="605.59"/>
</g>
<g>
	<rect x="477.27" y="583.57" class="st4" width="411.7" height="11.41"/>
	<rect x="484.61" y="572.16" class="st4" width="397.03" height="11.41"/>
	<rect x="492.27" y="560.75" class="st4" width="381.71" height="11.41"/>
	<rect x="469.83" y="594.98" class="st4" width="426.57" height="11.41"/>
	<rect x="462.47" y="606.39" class="st4" width="441.29" height="11.41"/>
	<rect x="454.92" y="617.8" class="st4" width="456.4" height="11.41"/>
	<rect x="447.45" y="629.21" class="st4" width="471.35" height="11.41"/>
	<rect x="440.13" y="640.62" class="st4" width="485.98" height="11.41"/>
	<rect x="432.56" y="652.03" class="st4" width="501.12" height="11.41"/>
	<rect x="425.19" y="663.44" class="st4" width="515.87" height="11.41"/>
	<rect x="417.82" y="674.85" class="st4" width="530.6" height="11.41"/>
	<rect x="410.23" y="686.26" class="st4" width="545.98" height="11.41"/>
</g>
<line class="st4" x1="1225.66" y1="549.19" x2="1225.66" y2="646.33"/>
<line class="st4" x1="1033.51" y1="646.33" x2="1225.66" y2="646.33"/>
<line class="st4" x1="141.34" y1="550.53" x2="141.34" y2="646.33"/>
<line class="st4" x1="333.14" y1="646.33" x2="141.34" y2="646.33"/>
<line class="st4" x1="141.34" y1="577.87" x2="419.39" y2="577.87"/>
<line class="st4" x1="141.34" y1="558.37" x2="427.98" y2="558.37"/>
<line class="st4" x1="141.34" y1="599.94" x2="333" y2="599.94"/>
<line class="st4" x1="141.34" y1="623.51" x2="333.14" y2="623.51"/>
<line class="st4" x1="1225.66" y1="577.87" x2="947.61" y2="577.87"/>
<line class="st4" x1="1225.66" y1="558.37" x2="939.02" y2="558.37"/>
<line class="st4" x1="1225.66" y1="599.94" x2="1034" y2="599.94"/>
<line class="st4" x1="1225.66" y1="623.51" x2="1033.86" y2="623.51"/>
<rect x="179.03" y="341.28" class="st4" width="126.9" height="183.46"/>
<rect x="1060.5" y="341.28" class="st4" width="126.9" height="183.46"/>
<rect x="896.7" y="341.28" class="st4" width="116.59" height="183.46"/>
<rect x="353.45" y="341.51" class="st4" width="118.24" height="183.46"/>
<g>
	<polyline class="st4" points="893.34,206.95 893.34,128.85 470.94,128.85 470.94,206.95 	"/>
	<rect x="462.94" y="120.65" class="st4" width="438.4" height="8.2"/>
</g>
<line class="st4" x1="684.27" y1="120.65" x2="684.27" y2="43.82"/>
</svg>
