<?xml version="1.0" encoding="utf-8"?>
<!-- Generator: Adobe Illustrator 27.7.0, SVG Export Plug-In . SVG Version: 6.00 Build 0)  -->
<svg version="1.1" id="Layer_1" xmlns="http://www.w3.org/2000/svg" xmlns:xlink="http://www.w3.org/1999/xlink" x="0px" y="0px"
	 viewBox="0 0 36 36" style="enable-background:new 0 0 36 36;" xml:space="preserve">
<style type="text/css">
	.st0{fill:#FFFBF3;}
	.st1{fill:#007C54;}
</style>
<circle class="st0" cx="18" cy="18" r="17.6"/>
<g>
	<path class="st1" d="M19.7,29.8c-2.3,0-4.3-1-5.4-2.7l0,3.4l-3.7-0.1l0.3-24.8l3.9,0l-0.1,10.8c1.2-1.6,3.3-2.6,5.3-2.6
		c4.4,0,7.4,3.4,7.4,8.1C27.3,26.6,24,29.8,19.7,29.8z M19,17.4c-2.6,0-4.6,2.1-4.6,4.6c0,2.4,1.8,4.4,4.4,4.4
		c2.6,0,4.4-1.8,4.4-4.5C23.3,19.4,21.7,17.4,19,17.4z"/>
</g>
</svg>
