<svg id="Layer_1" data-name="Layer 1" xmlns="http://www.w3.org/2000/svg" width="456.74" height="115.88" viewBox="0 0 456.74 115.88">
  <g class="top">
    <path class="cls-1" d="M90.71,67.35c0,7.48-6,13.53-14,16.5,8.08,3.09,14.84,9.85,14.84,19.59,0,11.61-9.79,23.45-21.73,27-.39.11-19.86,3.39-20.25,3.48H48.49c-8,0-16.31-9.1-18.33-15.51,1.74-.37,23.21-3.4,25.37-4a35.82,35.82,0,0,0,5.26-1.9c9.86-5.1,15.08-10.92,16.62-16.38a9.41,9.41,0,0,0-4.74-1c-3.45,0-5.82,1.42-8.91,1.42-3.56,0-5.94-4.15-7.48-7.24a210.33,210.33,0,0,0-10.8,41.32c-6.41-.12-13.42-5.94-15.32-12.23.59-12.11,7.36-37.16,12.82-53.19a21.79,21.79,0,0,1-7.24,1.66c-8.67,0-12.7-8.31-12.7-15.19A19.09,19.09,0,0,1,23.39,48,112.59,112.59,0,0,1,53,44.08C75,44.08,90.71,55.24,90.71,67.35ZM61.27,81.24c6.17-3.09,11.87-10.09,12.94-17.34-1.78-3.2-5.94-4.15-11-4.15a30.62,30.62,0,0,0-4.75.35c2.49,2.5,4.39,5.58,4.39,9,0,4.27-1.3,8.19-3,12.11Zm30.27,22.2c0,11.61-9.66,23.94-21.73,27a150.35,150.35,0,0,1-20.25,3.48" transform="translate(-23.04 -44.08)"/>
    <path class="cls-1" d="M121.05,72.33a25.27,25.27,0,0,1,4.51-.59c6.05,2.14,13.18,8.07,13.18,14.13,0,14.6-17,23-27.07,25.64-.36,1.19-.83,2.5-1.07,3.68,6.77-2.25,28.15-8.46,28.93-16.2,1.3,1.18,2.48,2.26,2.15,3.52-2.52,9.66-20.75,28.24-33.45,28.24-7-1.31-13.42-8.79-14.37-13.89a21.63,21.63,0,0,1-.36-4.4c0-17.93,8.91-37,22.32-42.26A16,16,0,0,1,121.05,72.33Zm-7.24,33.6c8.66-5.1,12.11-8.55,12.34-15.91A45.51,45.51,0,0,0,113.81,105.93Z" transform="translate(-23.04 -44.08)"/>
    <path class="cls-1" d="M164.09,113.77a71.08,71.08,0,0,1,2.26-15.44c-2.5,3-5.94,9.38-8.79,16-2.61,7.13-5.34,13.54-7.6,16.39-6.29-.12-15-4.52-18-10.93,0,0,3.79-8.31,5.58-14A293.29,293.29,0,0,0,146,70.2c8.79.59,18.64,5.81,18.64,15.67,0,3.56-1.3,9.61-3.2,16.26,5.94-15.31,12.7-29.68,15.08-30.15,7.71.47,15.31,5.7,17.92,10.09-5.46,12.7-8.54,21-10.44,27.42l-.72,2.38c6.06-2.38,13.78-7.72,16.63-10,0,9.14-9.62,28.85-20.66,28.85C169.79,130.75,164.09,122.08,164.09,113.77Z" transform="translate(-23.04 -44.08)"/>
    <path class="cls-1" d="M212.29,145.71c2-9,5.1-21,8.19-32.89-3.68,7.83-9,17.93-12.82,17.93-7.24-1.43-13.42-9.86-13.77-18.52v-1.67c0-18.64,13.17-37.63,21.6-38.7,5.47,1.19,10.1,5.58,12.83,10.33,1.18-4.87,2.13-9,2.61-12.11,10.33.71,18,7.6,18,15.08,0,5-7.36,26.23-13.65,49.15C230.45,151.88,219.89,160,209.56,160c-10.81,0-20.78-9-20.78-18.28a13.06,13.06,0,0,1,3-8.07C195.9,136.45,207.3,143.45,212.29,145.71ZM224,99.52l2.5-9.73c-8.43,5.93-14.37,16-17.22,28.73C214.54,114.6,220.84,105.93,224,99.52Z" transform="translate(-23.04 -44.08)"/>
    <path class="cls-1" d="M273.68,113.77a26.37,26.37,0,0,1,.24-4.16c-3.44,8-9.62,21.14-13.77,21.14-7.25-1.43-13.42-9.86-13.78-18.52v-1.67c0-18.64,13.18-37.63,21.61-38.7,5.35,1.19,9.86,5.22,12.59,9.85.71-3.56,1.42-7.83,2-11.51,8.78.59,18.64,5.81,18.64,15.67,0,7.36-4.87,19.23-7.36,25.41a85.65,85.65,0,0,0,15.07-9.38c0,9.14-9.49,28.73-20.65,28.85C278.79,130.51,273.68,121.72,273.68,113.77Zm5-23.75c-8.19,5.94-13.89,15.79-16.74,28.26,5.34-4,11.4-13.18,14.25-19.23C276.89,96.55,278.19,92.16,278.67,90Z" transform="translate(-23.04 -44.08)"/>
    <path class="cls-1" d="M355.71,113.53A73.87,73.87,0,0,1,358,98.45c-2.61,3.09-6.05,10-8.78,17a139.13,139.13,0,0,0-4.75,15.32c-7.36,0-13.89-7.13-14.84-13.06,1.06-5.58,3.79-13.54,6.41-21l1.07-3c-1.67,1-7,8.67-13.42,22.92-2.38,6.29-4.87,11.63-6.89,14.25-6.29-.12-15-4.52-18-10.93,0,0,3.8-8.31,5.58-14a294.92,294.92,0,0,0,8.55-35.62c8.78.6,18.64,5.82,18.64,15.68,0,3.2-1.07,8.54-2.62,14.48C333.28,89,340,72.33,341.59,71.38c7,.24,16,8,16,14.49,0,3.68-1.18,8.55-3,13.89,5.58-14.25,11.28-27.31,13.53-27.78,7.72.47,15.32,5.7,17.93,10.09-5.46,12.7-8.55,21-10.45,27.42l-.71,2.38c6.05-2.38,13.77-7.72,16.62-10,0,9.14-9.5,28.85-20.66,28.85C362,130.75,355.71,122.91,355.71,113.53Z" transform="translate(-23.04 -44.08)"/>
    <path class="cls-1" d="M386.1,113.18c0-4.75,1.78-11.17,3.33-16.63,1.3-4.51,4.86-19.35,6.17-26.35,9.26.71,18.64,6,18.64,15.67,0,7.95-4.87,17.09-8.19,25.88,6.05-2.37,13.29-7.6,16-9.85,0,9.14-9.38,28.85-20.43,28.85C391.68,130.75,386.1,121.84,386.1,113.18ZM398.69,55a15.35,15.35,0,0,0-.95-5.46,8.26,8.26,0,0,1,1.66-.12c6.88,0,18.64,4.51,18.64,13.3,0,3.8-2.26,7.83-5.82,8.19-4.27,0-12.58-2.73-15.31-6.77A20.71,20.71,0,0,0,398.69,55Z" transform="translate(-23.04 -44.08)"/>
    <path class="cls-1" d="M443.92,113.77a71.58,71.58,0,0,1,2.25-15.44c-2.49,3-5.93,9.38-8.78,16-2.61,7.13-5.34,13.54-7.6,16.39-6.29-.12-15-4.52-18.05-10.93,0,0,3.8-8.31,5.58-14a291.49,291.49,0,0,0,8.55-35.61c8.79.59,18.64,5.81,18.64,15.67,0,3.56-1.3,9.61-3.2,16.26C447.24,86.82,454,72.45,456.38,72c7.72.47,15.32,5.7,17.93,10.09-5.46,12.7-8.55,21-10.45,27.42l-.71,2.38c6.06-2.38,13.77-7.72,16.62-10,0,9.14-9.61,28.85-20.66,28.85C449.62,130.75,443.92,122.08,443.92,113.77Z" transform="translate(-23.04 -44.08)"/>
  </g>
  <g class="top">
    <path class="cls-2" d="M90.71,67.35c0,7.48-6,13.53-14,16.5,8.08,3.09,14.84,9.85,14.84,19.59,0,11.61-9.79,23.45-21.73,27-.39.11-19.86,3.39-20.25,3.48H48.49c-8,0-16.31-9.1-18.33-15.51,1.74-.37,23.21-3.4,25.37-4a35.82,35.82,0,0,0,5.26-1.9c9.86-5.1,15.08-10.92,16.62-16.38a9.41,9.41,0,0,0-4.74-1c-3.45,0-5.82,1.42-8.91,1.42-3.56,0-5.94-4.15-7.48-7.24a210.33,210.33,0,0,0-10.8,41.32c-6.41-.12-13.42-5.94-15.32-12.23.59-12.11,7.36-37.16,12.82-53.19a21.79,21.79,0,0,1-7.24,1.66c-8.67,0-12.7-8.31-12.7-15.19A19.09,19.09,0,0,1,23.39,48,112.59,112.59,0,0,1,53,44.08C75,44.08,90.71,55.24,90.71,67.35ZM61.27,81.24c6.17-3.09,11.87-10.09,12.94-17.34-1.78-3.2-5.94-4.15-11-4.15a30.62,30.62,0,0,0-4.75.35c2.49,2.5,4.39,5.58,4.39,9,0,4.27-1.3,8.19-3,12.11Zm30.27,22.2c0,11.61-9.66,23.94-21.73,27a150.35,150.35,0,0,1-20.25,3.48" transform="translate(-23.04 -44.08)"/>
    <path class="cls-2" d="M121.05,72.33a25.27,25.27,0,0,1,4.51-.59c6.05,2.14,13.18,8.07,13.18,14.13,0,14.6-17,23-27.07,25.64-.36,1.19-.83,2.5-1.07,3.68,6.77-2.25,28.15-8.46,28.93-16.2,1.3,1.18,2.48,2.26,2.15,3.52-2.52,9.66-20.75,28.24-33.45,28.24-7-1.31-13.42-8.79-14.37-13.89a21.63,21.63,0,0,1-.36-4.4c0-17.93,8.91-37,22.32-42.26A16,16,0,0,1,121.05,72.33Zm-7.24,33.6c8.66-5.1,12.11-8.55,12.34-15.91A45.51,45.51,0,0,0,113.81,105.93Z" transform="translate(-23.04 -44.08)"/>
    <path class="cls-2" d="M164.09,113.77a71.08,71.08,0,0,1,2.26-15.44c-2.5,3-5.94,9.38-8.79,16-2.61,7.13-5.34,13.54-7.6,16.39-6.29-.12-15-4.52-18-10.93,0,0,3.79-8.31,5.58-14A293.29,293.29,0,0,0,146,70.2c8.79.59,18.64,5.81,18.64,15.67,0,3.56-1.3,9.61-3.2,16.26,5.94-15.31,12.7-29.68,15.08-30.15,7.71.47,15.31,5.7,17.92,10.09-5.46,12.7-8.54,21-10.44,27.42l-.72,2.38c6.06-2.38,13.78-7.72,16.63-10,0,9.14-9.62,28.85-20.66,28.85C169.79,130.75,164.09,122.08,164.09,113.77Z" transform="translate(-23.04 -44.08)"/>
    <path class="cls-2" d="M212.29,145.71c2-9,5.1-21,8.19-32.89-3.68,7.83-9,17.93-12.82,17.93-7.24-1.43-13.42-9.86-13.77-18.52v-1.67c0-18.64,13.17-37.63,21.6-38.7,5.47,1.19,10.1,5.58,12.83,10.33,1.18-4.87,2.13-9,2.61-12.11,10.33.71,18,7.6,18,15.08,0,5-7.36,26.23-13.65,49.15C230.45,151.88,219.89,160,209.56,160c-10.81,0-20.78-9-20.78-18.28a13.06,13.06,0,0,1,3-8.07C195.9,136.45,207.3,143.45,212.29,145.71ZM224,99.52l2.5-9.73c-8.43,5.93-14.37,16-17.22,28.73C214.54,114.6,220.84,105.93,224,99.52Z" transform="translate(-23.04 -44.08)"/>
    <path class="cls-2" d="M273.68,113.77a26.37,26.37,0,0,1,.24-4.16c-3.44,8-9.62,21.14-13.77,21.14-7.25-1.43-13.42-9.86-13.78-18.52v-1.67c0-18.64,13.18-37.63,21.61-38.7,5.35,1.19,9.86,5.22,12.59,9.85.71-3.56,1.42-7.83,2-11.51,8.78.59,18.64,5.81,18.64,15.67,0,7.36-4.87,19.23-7.36,25.41a85.65,85.65,0,0,0,15.07-9.38c0,9.14-9.49,28.73-20.65,28.85C278.79,130.51,273.68,121.72,273.68,113.77Zm5-23.75c-8.19,5.94-13.89,15.79-16.74,28.26,5.34-4,11.4-13.18,14.25-19.23C276.89,96.55,278.19,92.16,278.67,90Z" transform="translate(-23.04 -44.08)"/>
    <path class="cls-2" d="M355.71,113.53A73.87,73.87,0,0,1,358,98.45c-2.61,3.09-6.05,10-8.78,17a139.13,139.13,0,0,0-4.75,15.32c-7.36,0-13.89-7.13-14.84-13.06,1.06-5.58,3.79-13.54,6.41-21l1.07-3c-1.67,1-7,8.67-13.42,22.92-2.38,6.29-4.87,11.63-6.89,14.25-6.29-.12-15-4.52-18-10.93,0,0,3.8-8.31,5.58-14a294.92,294.92,0,0,0,8.55-35.62c8.78.6,18.64,5.82,18.64,15.68,0,3.2-1.07,8.54-2.62,14.48C333.28,89,340,72.33,341.59,71.38c7,.24,16,8,16,14.49,0,3.68-1.18,8.55-3,13.89,5.58-14.25,11.28-27.31,13.53-27.78,7.72.47,15.32,5.7,17.93,10.09-5.46,12.7-8.55,21-10.45,27.42l-.71,2.38c6.05-2.38,13.77-7.72,16.62-10,0,9.14-9.5,28.85-20.66,28.85C362,130.75,355.71,122.91,355.71,113.53Z" transform="translate(-23.04 -44.08)"/>
    <path class="cls-2" d="M386.1,113.18c0-4.75,1.78-11.17,3.33-16.63,1.3-4.51,4.86-19.35,6.17-26.35,9.26.71,18.64,6,18.64,15.67,0,7.95-4.87,17.09-8.19,25.88,6.05-2.37,13.29-7.6,16-9.85,0,9.14-9.38,28.85-20.43,28.85C391.68,130.75,386.1,121.84,386.1,113.18ZM398.69,55a15.35,15.35,0,0,0-.95-5.46,8.26,8.26,0,0,1,1.66-.12c6.88,0,18.64,4.51,18.64,13.3,0,3.8-2.26,7.83-5.82,8.19-4.27,0-12.58-2.73-15.31-6.77A20.71,20.71,0,0,0,398.69,55Z" transform="translate(-23.04 -44.08)"/>
    <path class="cls-2" d="M443.92,113.77a71.58,71.58,0,0,1,2.25-15.44c-2.49,3-5.93,9.38-8.78,16-2.61,7.13-5.34,13.54-7.6,16.39-6.29-.12-15-4.52-18.05-10.93,0,0,3.8-8.31,5.58-14a291.49,291.49,0,0,0,8.55-35.61c8.79.59,18.64,5.81,18.64,15.67,0,3.56-1.3,9.61-3.2,16.26C447.24,86.82,454,72.45,456.38,72c7.72.47,15.32,5.7,17.93,10.09-5.46,12.7-8.55,21-10.45,27.42l-.71,2.38c6.06-2.38,13.77-7.72,16.62-10,0,9.14-9.61,28.85-20.66,28.85C449.62,130.75,443.92,122.08,443.92,113.77Z" transform="translate(-23.04 -44.08)"/>
  </g>
</svg>
